<svg xmlns="http://www.w3.org/2000/svg" width="1180" height="650" viewBox="0 0 1180 650" role="img" aria-labelledby="title desc">
<title id="title">A/D/E Dynkin diagram shape legend</title>
<desc id="desc">Schematic simply-laced A, D, and E Dynkin diagram shapes used by the support-graph classifier.</desc>
<rect width="100%" height="100%" fill="#ffffff"/>
<text x="34.0" y="40.0" text-anchor="start" font-family="Arial, Helvetica, sans-serif" font-size="22" font-weight="700" fill="#17201c">A/D/E Dynkin diagram shapes used in the classifier</text>
<text x="34.0" y="66.0" text-anchor="start" font-family="Arial, Helvetica, sans-serif" font-size="13" font-weight="400" fill="#5e6a64">Schematic simple unweighted shapes. A_n is a path; D_n is a forked path; E6/E7/E8 are exceptional trees.</text>
<rect x="34" y="91" width="342" height="492" rx="8" fill="#fbfcfa" stroke="#d9ded8"/>
<text x="52.0" y="122.0" text-anchor="start" font-family="Arial, Helvetica, sans-serif" font-size="17" font-weight="700" fill="#315f4d">A_n paths</text>
<rect x="414" y="91" width="306" height="492" rx="8" fill="#fbfcfa" stroke="#d9ded8"/>
<text x="432.0" y="122.0" text-anchor="start" font-family="Arial, Helvetica, sans-serif" font-size="17" font-weight="700" fill="#355f86">D_n forked paths</text>
<rect x="758" y="91" width="388" height="492" rx="8" fill="#fbfcfa" stroke="#d9ded8"/>
<text x="776.0" y="122.0" text-anchor="start" font-family="Arial, Helvetica, sans-serif" font-size="17" font-weight="700" fill="#8e3f35">Exceptional E types</text>
<text x="58.0" y="155.0" text-anchor="start" font-family="Arial, Helvetica, sans-serif" font-size="13" font-weight="700" fill="#315f4d">A1</text>
<circle cx="102.0" cy="150.0" r="6.5" fill="#ffffff" stroke="#315f4d" stroke-width="2.2"/>
<text x="58.0" y="204.0" text-anchor="start" font-family="Arial, Helvetica, sans-serif" font-size="13" font-weight="700" fill="#315f4d">A2</text>
<line x1="102.0" y1="199.0" x2="129.0" y2="199.0" stroke="#315f4d" stroke-width="2.2" stroke-linecap="round"/>
<circle cx="102.0" cy="199.0" r="6.5" fill="#ffffff" stroke="#315f4d" stroke-width="2.2"/>
<circle cx="129.0" cy="199.0" r="6.5" fill="#ffffff" stroke="#315f4d" stroke-width="2.2"/>
<text x="58.0" y="253.0" text-anchor="start" font-family="Arial, Helvetica, sans-serif" font-size="13" font-weight="700" fill="#315f4d">A3</text>
<line x1="102.0" y1="248.0" x2="129.0" y2="248.0" stroke="#315f4d" stroke-width="2.2" stroke-linecap="round"/>
<line x1="129.0" y1="248.0" x2="156.0" y2="248.0" stroke="#315f4d" stroke-width="2.2" stroke-linecap="round"/>
<circle cx="102.0" cy="248.0" r="6.5" fill="#ffffff" stroke="#315f4d" stroke-width="2.2"/>
<circle cx="129.0" cy="248.0" r="6.5" fill="#ffffff" stroke="#315f4d" stroke-width="2.2"/>
<circle cx="156.0" cy="248.0" r="6.5" fill="#ffffff" stroke="#315f4d" stroke-width="2.2"/>
<text x="58.0" y="302.0" text-anchor="start" font-family="Arial, Helvetica, sans-serif" font-size="13" font-weight="700" fill="#315f4d">A4</text>
<line x1="102.0" y1="297.0" x2="129.0" y2="297.0" stroke="#315f4d" stroke-width="2.2" stroke-linecap="round"/>
<line x1="129.0" y1="297.0" x2="156.0" y2="297.0" stroke="#315f4d" stroke-width="2.2" stroke-linecap="round"/>
<line x1="156.0" y1="297.0" x2="183.0" y2="297.0" stroke="#315f4d" stroke-width="2.2" stroke-linecap="round"/>
<circle cx="102.0" cy="297.0" r="6.5" fill="#ffffff" stroke="#315f4d" stroke-width="2.2"/>
<circle cx="129.0" cy="297.0" r="6.5" fill="#ffffff" stroke="#315f4d" stroke-width="2.2"/>
<circle cx="156.0" cy="297.0" r="6.5" fill="#ffffff" stroke="#315f4d" stroke-width="2.2"/>
<circle cx="183.0" cy="297.0" r="6.5" fill="#ffffff" stroke="#315f4d" stroke-width="2.2"/>
<text x="58.0" y="351.0" text-anchor="start" font-family="Arial, Helvetica, sans-serif" font-size="13" font-weight="700" fill="#315f4d">A5</text>
<line x1="102.0" y1="346.0" x2="129.0" y2="346.0" stroke="#315f4d" stroke-width="2.2" stroke-linecap="round"/>
<line x1="129.0" y1="346.0" x2="156.0" y2="346.0" stroke="#315f4d" stroke-width="2.2" stroke-linecap="round"/>
<line x1="156.0" y1="346.0" x2="183.0" y2="346.0" stroke="#315f4d" stroke-width="2.2" stroke-linecap="round"/>
<line x1="183.0" y1="346.0" x2="210.0" y2="346.0" stroke="#315f4d" stroke-width="2.2" stroke-linecap="round"/>
<circle cx="102.0" cy="346.0" r="6.5" fill="#ffffff" stroke="#315f4d" stroke-width="2.2"/>
<circle cx="129.0" cy="346.0" r="6.5" fill="#ffffff" stroke="#315f4d" stroke-width="2.2"/>
<circle cx="156.0" cy="346.0" r="6.5" fill="#ffffff" stroke="#315f4d" stroke-width="2.2"/>
<circle cx="183.0" cy="346.0" r="6.5" fill="#ffffff" stroke="#315f4d" stroke-width="2.2"/>
<circle cx="210.0" cy="346.0" r="6.5" fill="#ffffff" stroke="#315f4d" stroke-width="2.2"/>
<text x="58.0" y="400.0" text-anchor="start" font-family="Arial, Helvetica, sans-serif" font-size="13" font-weight="700" fill="#315f4d">A6</text>
<line x1="102.0" y1="395.0" x2="129.0" y2="395.0" stroke="#315f4d" stroke-width="2.2" stroke-linecap="round"/>
<line x1="129.0" y1="395.0" x2="156.0" y2="395.0" stroke="#315f4d" stroke-width="2.2" stroke-linecap="round"/>
<line x1="156.0" y1="395.0" x2="183.0" y2="395.0" stroke="#315f4d" stroke-width="2.2" stroke-linecap="round"/>
<line x1="183.0" y1="395.0" x2="210.0" y2="395.0" stroke="#315f4d" stroke-width="2.2" stroke-linecap="round"/>
<line x1="210.0" y1="395.0" x2="237.0" y2="395.0" stroke="#315f4d" stroke-width="2.2" stroke-linecap="round"/>
<circle cx="102.0" cy="395.0" r="6.5" fill="#ffffff" stroke="#315f4d" stroke-width="2.2"/>
<circle cx="129.0" cy="395.0" r="6.5" fill="#ffffff" stroke="#315f4d" stroke-width="2.2"/>
<circle cx="156.0" cy="395.0" r="6.5" fill="#ffffff" stroke="#315f4d" stroke-width="2.2"/>
<circle cx="183.0" cy="395.0" r="6.5" fill="#ffffff" stroke="#315f4d" stroke-width="2.2"/>
<circle cx="210.0" cy="395.0" r="6.5" fill="#ffffff" stroke="#315f4d" stroke-width="2.2"/>
<circle cx="237.0" cy="395.0" r="6.5" fill="#ffffff" stroke="#315f4d" stroke-width="2.2"/>
<text x="58.0" y="449.0" text-anchor="start" font-family="Arial, Helvetica, sans-serif" font-size="13" font-weight="700" fill="#315f4d">A7</text>
<line x1="102.0" y1="444.0" x2="129.0" y2="444.0" stroke="#315f4d" stroke-width="2.2" stroke-linecap="round"/>
<line x1="129.0" y1="444.0" x2="156.0" y2="444.0" stroke="#315f4d" stroke-width="2.2" stroke-linecap="round"/>
<line x1="156.0" y1="444.0" x2="183.0" y2="444.0" stroke="#315f4d" stroke-width="2.2" stroke-linecap="round"/>
<line x1="183.0" y1="444.0" x2="210.0" y2="444.0" stroke="#315f4d" stroke-width="2.2" stroke-linecap="round"/>
<line x1="210.0" y1="444.0" x2="237.0" y2="444.0" stroke="#315f4d" stroke-width="2.2" stroke-linecap="round"/>
<line x1="237.0" y1="444.0" x2="264.0" y2="444.0" stroke="#315f4d" stroke-width="2.2" stroke-linecap="round"/>
<circle cx="102.0" cy="444.0" r="6.5" fill="#ffffff" stroke="#315f4d" stroke-width="2.2"/>
<circle cx="129.0" cy="444.0" r="6.5" fill="#ffffff" stroke="#315f4d" stroke-width="2.2"/>
<circle cx="156.0" cy="444.0" r="6.5" fill="#ffffff" stroke="#315f4d" stroke-width="2.2"/>
<circle cx="183.0" cy="444.0" r="6.5" fill="#ffffff" stroke="#315f4d" stroke-width="2.2"/>
<circle cx="210.0" cy="444.0" r="6.5" fill="#ffffff" stroke="#315f4d" stroke-width="2.2"/>
<circle cx="237.0" cy="444.0" r="6.5" fill="#ffffff" stroke="#315f4d" stroke-width="2.2"/>
<circle cx="264.0" cy="444.0" r="6.5" fill="#ffffff" stroke="#315f4d" stroke-width="2.2"/>
<text x="58.0" y="498.0" text-anchor="start" font-family="Arial, Helvetica, sans-serif" font-size="13" font-weight="700" fill="#315f4d">A8</text>
<line x1="102.0" y1="493.0" x2="129.0" y2="493.0" stroke="#315f4d" stroke-width="2.2" stroke-linecap="round"/>
<line x1="129.0" y1="493.0" x2="156.0" y2="493.0" stroke="#315f4d" stroke-width="2.2" stroke-linecap="round"/>
<line x1="156.0" y1="493.0" x2="183.0" y2="493.0" stroke="#315f4d" stroke-width="2.2" stroke-linecap="round"/>
<line x1="183.0" y1="493.0" x2="210.0" y2="493.0" stroke="#315f4d" stroke-width="2.2" stroke-linecap="round"/>
<line x1="210.0" y1="493.0" x2="237.0" y2="493.0" stroke="#315f4d" stroke-width="2.2" stroke-linecap="round"/>
<line x1="237.0" y1="493.0" x2="264.0" y2="493.0" stroke="#315f4d" stroke-width="2.2" stroke-linecap="round"/>
<line x1="264.0" y1="493.0" x2="291.0" y2="493.0" stroke="#315f4d" stroke-width="2.2" stroke-linecap="round"/>
<circle cx="102.0" cy="493.0" r="6.5" fill="#ffffff" stroke="#315f4d" stroke-width="2.2"/>
<circle cx="129.0" cy="493.0" r="6.5" fill="#ffffff" stroke="#315f4d" stroke-width="2.2"/>
<circle cx="156.0" cy="493.0" r="6.5" fill="#ffffff" stroke="#315f4d" stroke-width="2.2"/>
<circle cx="183.0" cy="493.0" r="6.5" fill="#ffffff" stroke="#315f4d" stroke-width="2.2"/>
<circle cx="210.0" cy="493.0" r="6.5" fill="#ffffff" stroke="#315f4d" stroke-width="2.2"/>
<circle cx="237.0" cy="493.0" r="6.5" fill="#ffffff" stroke="#315f4d" stroke-width="2.2"/>
<circle cx="264.0" cy="493.0" r="6.5" fill="#ffffff" stroke="#315f4d" stroke-width="2.2"/>
<circle cx="291.0" cy="493.0" r="6.5" fill="#ffffff" stroke="#315f4d" stroke-width="2.2"/>
<text x="438.0" y="168.0" text-anchor="start" font-family="Arial, Helvetica, sans-serif" font-size="13" font-weight="700" fill="#355f86">D4</text>
<line x1="489.0" y1="163.0" x2="518.0" y2="163.0" stroke="#355f86" stroke-width="2.2" stroke-linecap="round"/>
<line x1="518.0" y1="163.0" x2="547.0" y2="163.0" stroke="#355f86" stroke-width="2.2" stroke-linecap="round"/>
<line x1="518.0" y1="163.0" x2="518.0" y2="136.0" stroke="#355f86" stroke-width="2.2" stroke-linecap="round"/>
<circle cx="489.0" cy="163.0" r="6.5" fill="#ffffff" stroke="#355f86" stroke-width="2.2"/>
<circle cx="518.0" cy="163.0" r="6.5" fill="#ffffff" stroke="#355f86" stroke-width="2.2"/>
<circle cx="547.0" cy="163.0" r="6.5" fill="#ffffff" stroke="#355f86" stroke-width="2.2"/>
<circle cx="518.0" cy="136.0" r="6.5" fill="#ffffff" stroke="#355f86" stroke-width="2.2"/>
<text x="438.0" y="246.0" text-anchor="start" font-family="Arial, Helvetica, sans-serif" font-size="13" font-weight="700" fill="#355f86">D5</text>
<line x1="489.0" y1="241.0" x2="518.0" y2="241.0" stroke="#355f86" stroke-width="2.2" stroke-linecap="round"/>
<line x1="518.0" y1="241.0" x2="547.0" y2="241.0" stroke="#355f86" stroke-width="2.2" stroke-linecap="round"/>
<line x1="547.0" y1="241.0" x2="576.0" y2="241.0" stroke="#355f86" stroke-width="2.2" stroke-linecap="round"/>
<line x1="518.0" y1="241.0" x2="518.0" y2="214.0" stroke="#355f86" stroke-width="2.2" stroke-linecap="round"/>
<circle cx="489.0" cy="241.0" r="6.5" fill="#ffffff" stroke="#355f86" stroke-width="2.2"/>
<circle cx="518.0" cy="241.0" r="6.5" fill="#ffffff" stroke="#355f86" stroke-width="2.2"/>
<circle cx="547.0" cy="241.0" r="6.5" fill="#ffffff" stroke="#355f86" stroke-width="2.2"/>
<circle cx="576.0" cy="241.0" r="6.5" fill="#ffffff" stroke="#355f86" stroke-width="2.2"/>
<circle cx="518.0" cy="214.0" r="6.5" fill="#ffffff" stroke="#355f86" stroke-width="2.2"/>
<text x="438.0" y="324.0" text-anchor="start" font-family="Arial, Helvetica, sans-serif" font-size="13" font-weight="700" fill="#355f86">D6</text>
<line x1="489.0" y1="319.0" x2="518.0" y2="319.0" stroke="#355f86" stroke-width="2.2" stroke-linecap="round"/>
<line x1="518.0" y1="319.0" x2="547.0" y2="319.0" stroke="#355f86" stroke-width="2.2" stroke-linecap="round"/>
<line x1="547.0" y1="319.0" x2="576.0" y2="319.0" stroke="#355f86" stroke-width="2.2" stroke-linecap="round"/>
<line x1="576.0" y1="319.0" x2="605.0" y2="319.0" stroke="#355f86" stroke-width="2.2" stroke-linecap="round"/>
<line x1="518.0" y1="319.0" x2="518.0" y2="292.0" stroke="#355f86" stroke-width="2.2" stroke-linecap="round"/>
<circle cx="489.0" cy="319.0" r="6.5" fill="#ffffff" stroke="#355f86" stroke-width="2.2"/>
<circle cx="518.0" cy="319.0" r="6.5" fill="#ffffff" stroke="#355f86" stroke-width="2.2"/>
<circle cx="547.0" cy="319.0" r="6.5" fill="#ffffff" stroke="#355f86" stroke-width="2.2"/>
<circle cx="576.0" cy="319.0" r="6.5" fill="#ffffff" stroke="#355f86" stroke-width="2.2"/>
<circle cx="605.0" cy="319.0" r="6.5" fill="#ffffff" stroke="#355f86" stroke-width="2.2"/>
<circle cx="518.0" cy="292.0" r="6.5" fill="#ffffff" stroke="#355f86" stroke-width="2.2"/>
<text x="438.0" y="402.0" text-anchor="start" font-family="Arial, Helvetica, sans-serif" font-size="13" font-weight="700" fill="#355f86">D7</text>
<line x1="489.0" y1="397.0" x2="518.0" y2="397.0" stroke="#355f86" stroke-width="2.2" stroke-linecap="round"/>
<line x1="518.0" y1="397.0" x2="547.0" y2="397.0" stroke="#355f86" stroke-width="2.2" stroke-linecap="round"/>
<line x1="547.0" y1="397.0" x2="576.0" y2="397.0" stroke="#355f86" stroke-width="2.2" stroke-linecap="round"/>
<line x1="576.0" y1="397.0" x2="605.0" y2="397.0" stroke="#355f86" stroke-width="2.2" stroke-linecap="round"/>
<line x1="605.0" y1="397.0" x2="634.0" y2="397.0" stroke="#355f86" stroke-width="2.2" stroke-linecap="round"/>
<line x1="518.0" y1="397.0" x2="518.0" y2="370.0" stroke="#355f86" stroke-width="2.2" stroke-linecap="round"/>
<circle cx="489.0" cy="397.0" r="6.5" fill="#ffffff" stroke="#355f86" stroke-width="2.2"/>
<circle cx="518.0" cy="397.0" r="6.5" fill="#ffffff" stroke="#355f86" stroke-width="2.2"/>
<circle cx="547.0" cy="397.0" r="6.5" fill="#ffffff" stroke="#355f86" stroke-width="2.2"/>
<circle cx="576.0" cy="397.0" r="6.5" fill="#ffffff" stroke="#355f86" stroke-width="2.2"/>
<circle cx="605.0" cy="397.0" r="6.5" fill="#ffffff" stroke="#355f86" stroke-width="2.2"/>
<circle cx="634.0" cy="397.0" r="6.5" fill="#ffffff" stroke="#355f86" stroke-width="2.2"/>
<circle cx="518.0" cy="370.0" r="6.5" fill="#ffffff" stroke="#355f86" stroke-width="2.2"/>
<text x="438.0" y="480.0" text-anchor="start" font-family="Arial, Helvetica, sans-serif" font-size="13" font-weight="700" fill="#355f86">D8</text>
<line x1="489.0" y1="475.0" x2="518.0" y2="475.0" stroke="#355f86" stroke-width="2.2" stroke-linecap="round"/>
<line x1="518.0" y1="475.0" x2="547.0" y2="475.0" stroke="#355f86" stroke-width="2.2" stroke-linecap="round"/>
<line x1="547.0" y1="475.0" x2="576.0" y2="475.0" stroke="#355f86" stroke-width="2.2" stroke-linecap="round"/>
<line x1="576.0" y1="475.0" x2="605.0" y2="475.0" stroke="#355f86" stroke-width="2.2" stroke-linecap="round"/>
<line x1="605.0" y1="475.0" x2="634.0" y2="475.0" stroke="#355f86" stroke-width="2.2" stroke-linecap="round"/>
<line x1="634.0" y1="475.0" x2="663.0" y2="475.0" stroke="#355f86" stroke-width="2.2" stroke-linecap="round"/>
<line x1="518.0" y1="475.0" x2="518.0" y2="448.0" stroke="#355f86" stroke-width="2.2" stroke-linecap="round"/>
<circle cx="489.0" cy="475.0" r="6.5" fill="#ffffff" stroke="#355f86" stroke-width="2.2"/>
<circle cx="518.0" cy="475.0" r="6.5" fill="#ffffff" stroke="#355f86" stroke-width="2.2"/>
<circle cx="547.0" cy="475.0" r="6.5" fill="#ffffff" stroke="#355f86" stroke-width="2.2"/>
<circle cx="576.0" cy="475.0" r="6.5" fill="#ffffff" stroke="#355f86" stroke-width="2.2"/>
<circle cx="605.0" cy="475.0" r="6.5" fill="#ffffff" stroke="#355f86" stroke-width="2.2"/>
<circle cx="634.0" cy="475.0" r="6.5" fill="#ffffff" stroke="#355f86" stroke-width="2.2"/>
<circle cx="663.0" cy="475.0" r="6.5" fill="#ffffff" stroke="#355f86" stroke-width="2.2"/>
<circle cx="518.0" cy="448.0" r="6.5" fill="#ffffff" stroke="#355f86" stroke-width="2.2"/>
<text x="782.0" y="183.0" text-anchor="start" font-family="Arial, Helvetica, sans-serif" font-size="14" font-weight="700" fill="#8e3f35">E6</text>
<line x1="837.0" y1="178.0" x2="867.0" y2="178.0" stroke="#8e3f35" stroke-width="2.2" stroke-linecap="round"/>
<line x1="867.0" y1="178.0" x2="897.0" y2="178.0" stroke="#8e3f35" stroke-width="2.2" stroke-linecap="round"/>
<line x1="897.0" y1="178.0" x2="927.0" y2="178.0" stroke="#8e3f35" stroke-width="2.2" stroke-linecap="round"/>
<line x1="927.0" y1="178.0" x2="957.0" y2="178.0" stroke="#8e3f35" stroke-width="2.2" stroke-linecap="round"/>
<line x1="897.0" y1="178.0" x2="897.0" y2="147.0" stroke="#8e3f35" stroke-width="2.2" stroke-linecap="round"/>
<circle cx="837.0" cy="178.0" r="6.5" fill="#ffffff" stroke="#8e3f35" stroke-width="2.2"/>
<circle cx="867.0" cy="178.0" r="6.5" fill="#ffffff" stroke="#8e3f35" stroke-width="2.2"/>
<circle cx="897.0" cy="178.0" r="6.5" fill="#ffffff" stroke="#8e3f35" stroke-width="2.2"/>
<circle cx="927.0" cy="178.0" r="6.5" fill="#ffffff" stroke="#8e3f35" stroke-width="2.2"/>
<circle cx="957.0" cy="178.0" r="6.5" fill="#ffffff" stroke="#8e3f35" stroke-width="2.2"/>
<circle cx="897.0" cy="147.0" r="6.5" fill="#ffffff" stroke="#8e3f35" stroke-width="2.2"/>
<text x="782.0" y="304.0" text-anchor="start" font-family="Arial, Helvetica, sans-serif" font-size="14" font-weight="700" fill="#8e3f35">E7</text>
<line x1="837.0" y1="299.0" x2="867.0" y2="299.0" stroke="#8e3f35" stroke-width="2.2" stroke-linecap="round"/>
<line x1="867.0" y1="299.0" x2="897.0" y2="299.0" stroke="#8e3f35" stroke-width="2.2" stroke-linecap="round"/>
<line x1="897.0" y1="299.0" x2="927.0" y2="299.0" stroke="#8e3f35" stroke-width="2.2" stroke-linecap="round"/>
<line x1="927.0" y1="299.0" x2="957.0" y2="299.0" stroke="#8e3f35" stroke-width="2.2" stroke-linecap="round"/>
<line x1="957.0" y1="299.0" x2="987.0" y2="299.0" stroke="#8e3f35" stroke-width="2.2" stroke-linecap="round"/>
<line x1="897.0" y1="299.0" x2="897.0" y2="268.0" stroke="#8e3f35" stroke-width="2.2" stroke-linecap="round"/>
<circle cx="837.0" cy="299.0" r="6.5" fill="#ffffff" stroke="#8e3f35" stroke-width="2.2"/>
<circle cx="867.0" cy="299.0" r="6.5" fill="#ffffff" stroke="#8e3f35" stroke-width="2.2"/>
<circle cx="897.0" cy="299.0" r="6.5" fill="#ffffff" stroke="#8e3f35" stroke-width="2.2"/>
<circle cx="927.0" cy="299.0" r="6.5" fill="#ffffff" stroke="#8e3f35" stroke-width="2.2"/>
<circle cx="957.0" cy="299.0" r="6.5" fill="#ffffff" stroke="#8e3f35" stroke-width="2.2"/>
<circle cx="987.0" cy="299.0" r="6.5" fill="#ffffff" stroke="#8e3f35" stroke-width="2.2"/>
<circle cx="897.0" cy="268.0" r="6.5" fill="#ffffff" stroke="#8e3f35" stroke-width="2.2"/>
<text x="782.0" y="425.0" text-anchor="start" font-family="Arial, Helvetica, sans-serif" font-size="14" font-weight="700" fill="#8e3f35">E8</text>
<line x1="837.0" y1="420.0" x2="867.0" y2="420.0" stroke="#8e3f35" stroke-width="2.2" stroke-linecap="round"/>
<line x1="867.0" y1="420.0" x2="897.0" y2="420.0" stroke="#8e3f35" stroke-width="2.2" stroke-linecap="round"/>
<line x1="897.0" y1="420.0" x2="927.0" y2="420.0" stroke="#8e3f35" stroke-width="2.2" stroke-linecap="round"/>
<line x1="927.0" y1="420.0" x2="957.0" y2="420.0" stroke="#8e3f35" stroke-width="2.2" stroke-linecap="round"/>
<line x1="957.0" y1="420.0" x2="987.0" y2="420.0" stroke="#8e3f35" stroke-width="2.2" stroke-linecap="round"/>
<line x1="987.0" y1="420.0" x2="1017.0" y2="420.0" stroke="#8e3f35" stroke-width="2.2" stroke-linecap="round"/>
<line x1="897.0" y1="420.0" x2="897.0" y2="389.0" stroke="#8e3f35" stroke-width="2.2" stroke-linecap="round"/>
<circle cx="837.0" cy="420.0" r="6.5" fill="#ffffff" stroke="#8e3f35" stroke-width="2.2"/>
<circle cx="867.0" cy="420.0" r="6.5" fill="#ffffff" stroke="#8e3f35" stroke-width="2.2"/>
<circle cx="897.0" cy="420.0" r="6.5" fill="#ffffff" stroke="#8e3f35" stroke-width="2.2"/>
<circle cx="927.0" cy="420.0" r="6.5" fill="#ffffff" stroke="#8e3f35" stroke-width="2.2"/>
<circle cx="957.0" cy="420.0" r="6.5" fill="#ffffff" stroke="#8e3f35" stroke-width="2.2"/>
<circle cx="987.0" cy="420.0" r="6.5" fill="#ffffff" stroke="#8e3f35" stroke-width="2.2"/>
<circle cx="1017.0" cy="420.0" r="6.5" fill="#ffffff" stroke="#8e3f35" stroke-width="2.2"/>
<circle cx="897.0" cy="389.0" r="6.5" fill="#ffffff" stroke="#8e3f35" stroke-width="2.2"/>
<rect x="34" y="603" width="1112" height="1" fill="#d9ded8"/>
<text x="34.0" y="629.0" text-anchor="start" font-family="Arial, Helvetica, sans-serif" font-size="12" font-weight="400" fill="#5e6a64">Only simply-laced A/D/E shapes are used here. B/C/F/G would need extra structure beyond a simple unweighted support graph.</text>
</svg>
