<svg xmlns="http://www.w3.org/2000/svg" width="1010" height="340" viewBox="0 0 1010 340">
<rect width="1010" height="340" fill="#ffffff"/>
<text x="505" y="38" text-anchor="middle" font-family="Arial, sans-serif" font-size="20" fill="#243040">Dynkin-style reading of the F169 support graph</text>
<text x="505" y="62" text-anchor="middle" font-family="Arial, sans-serif" font-size="13" fill="#243040">support-graph component signature: A2 + E6 + E6</text>
<text x="138" y="107" text-anchor="middle" font-family="Arial, sans-serif" font-size="15" fill="#243040">A2_1</text>
<line x1="95" y1="215" x2="181" y2="215" stroke="#2B6CB0" stroke-width="3" stroke-linecap="round"/>
<circle cx="95" cy="215" r="18" fill="#ffffff" stroke="#2B6CB0" stroke-width="3"/>
<text x="95" y="220" text-anchor="middle" font-family="Arial, sans-serif" font-size="12" fill="#243040">a1</text>
<circle cx="181" cy="215" r="18" fill="#ffffff" stroke="#2B6CB0" stroke-width="3"/>
<text x="181" y="220" text-anchor="middle" font-family="Arial, sans-serif" font-size="12" fill="#243040">a2</text>
<text x="470" y="117" text-anchor="middle" font-family="Arial, sans-serif" font-size="15" fill="#243040">E6_1</text>
<line x1="330" y1="225" x2="400" y2="225" stroke="#2F855A" stroke-width="3" stroke-linecap="round"/>
<line x1="400" y1="225" x2="470" y2="225" stroke="#2F855A" stroke-width="3" stroke-linecap="round"/>
<line x1="470" y1="225" x2="540" y2="225" stroke="#2F855A" stroke-width="3" stroke-linecap="round"/>
<line x1="540" y1="225" x2="610" y2="225" stroke="#2F855A" stroke-width="3" stroke-linecap="round"/>
<line x1="470" y1="225" x2="470" y2="153" stroke="#2F855A" stroke-width="3" stroke-linecap="round"/>
<circle cx="330" cy="225" r="18" fill="#ffffff" stroke="#2F855A" stroke-width="3"/>
<text x="330" y="230" text-anchor="middle" font-family="Arial, sans-serif" font-size="12" fill="#243040">e1</text>
<circle cx="400" cy="225" r="18" fill="#ffffff" stroke="#2F855A" stroke-width="3"/>
<text x="400" y="230" text-anchor="middle" font-family="Arial, sans-serif" font-size="12" fill="#243040">e2</text>
<circle cx="470" cy="225" r="18" fill="#ffffff" stroke="#2F855A" stroke-width="3"/>
<text x="470" y="230" text-anchor="middle" font-family="Arial, sans-serif" font-size="12" fill="#243040">e3</text>
<circle cx="540" cy="225" r="18" fill="#ffffff" stroke="#2F855A" stroke-width="3"/>
<text x="540" y="230" text-anchor="middle" font-family="Arial, sans-serif" font-size="12" fill="#243040">e4</text>
<circle cx="610" cy="225" r="18" fill="#ffffff" stroke="#2F855A" stroke-width="3"/>
<text x="610" y="230" text-anchor="middle" font-family="Arial, sans-serif" font-size="12" fill="#243040">e5</text>
<circle cx="470" cy="153" r="18" fill="#ffffff" stroke="#2F855A" stroke-width="3"/>
<text x="470" y="158" text-anchor="middle" font-family="Arial, sans-serif" font-size="12" fill="#243040">e6</text>
<text x="815" y="117" text-anchor="middle" font-family="Arial, sans-serif" font-size="15" fill="#243040">E6_2</text>
<line x1="675" y1="225" x2="745" y2="225" stroke="#B7791F" stroke-width="3" stroke-linecap="round"/>
<line x1="745" y1="225" x2="815" y2="225" stroke="#B7791F" stroke-width="3" stroke-linecap="round"/>
<line x1="815" y1="225" x2="885" y2="225" stroke="#B7791F" stroke-width="3" stroke-linecap="round"/>
<line x1="885" y1="225" x2="955" y2="225" stroke="#B7791F" stroke-width="3" stroke-linecap="round"/>
<line x1="815" y1="225" x2="815" y2="153" stroke="#B7791F" stroke-width="3" stroke-linecap="round"/>
<circle cx="675" cy="225" r="18" fill="#ffffff" stroke="#B7791F" stroke-width="3"/>
<text x="675" y="230" text-anchor="middle" font-family="Arial, sans-serif" font-size="12" fill="#243040">e1</text>
<circle cx="745" cy="225" r="18" fill="#ffffff" stroke="#B7791F" stroke-width="3"/>
<text x="745" y="230" text-anchor="middle" font-family="Arial, sans-serif" font-size="12" fill="#243040">e2</text>
<circle cx="815" cy="225" r="18" fill="#ffffff" stroke="#B7791F" stroke-width="3"/>
<text x="815" y="230" text-anchor="middle" font-family="Arial, sans-serif" font-size="12" fill="#243040">e3</text>
<circle cx="885" cy="225" r="18" fill="#ffffff" stroke="#B7791F" stroke-width="3"/>
<text x="885" y="230" text-anchor="middle" font-family="Arial, sans-serif" font-size="12" fill="#243040">e4</text>
<circle cx="955" cy="225" r="18" fill="#ffffff" stroke="#B7791F" stroke-width="3"/>
<text x="955" y="230" text-anchor="middle" font-family="Arial, sans-serif" font-size="12" fill="#243040">e5</text>
<circle cx="815" cy="153" r="18" fill="#ffffff" stroke="#B7791F" stroke-width="3"/>
<text x="815" y="158" text-anchor="middle" font-family="Arial, sans-serif" font-size="12" fill="#243040">e6</text>
<text x="505" y="314" text-anchor="middle" font-family="Arial, sans-serif" font-size="12" fill="#243040">Diagrammatic comparison only; no hardness or moonshine theorem is claimed here.</text>
</svg>
